HIERARCHY
ROOT joint_0
{
	OFFSET 0.000000 0.000000 0.000000
	CHANNELS 6 Xposition Yposition Zposition Zrotation Yrotation Xrotation 
	JOINT joint_1
	{
		OFFSET -0.613770 -1.125488 108.300049
		CHANNELS 3 Zrotation Yrotation Xrotation
		JOINT joint_2
		{
			OFFSET -10.925537 -0.900513 98.259033
			CHANNELS 3 Zrotation Yrotation Xrotation
			JOINT joint_3
			{
				OFFSET -11.287842 0.313599 98.110962
				CHANNELS 3 Zrotation Yrotation Xrotation
				JOINT joint_4
				{
					OFFSET -2.124268 2.484680 136.491943
					CHANNELS 3 Zrotation Yrotation Xrotation
					JOINT joint_5
					{
						OFFSET 16.640869 1.801270 81.862061
						CHANNELS 3 Zrotation Yrotation Xrotation
						End Site
						{
							OFFSET 0.000000 0.000000 0.000000
						}
					}
				}
				JOINT joint_6
				{
					OFFSET 0.447998 -28.248108 77.258057
					CHANNELS 3 Zrotation Yrotation Xrotation
					JOINT joint_7
					{
						OFFSET 7.918701 -130.256348 -24.086060
						CHANNELS 3 Zrotation Yrotation Xrotation
						JOINT joint_8
						{
							OFFSET 62.431885 -29.384277 -258.572021
							CHANNELS 3 Zrotation Yrotation Xrotation
							JOINT joint_9
							{
								OFFSET 53.743164 -21.907532 -238.024963
								CHANNELS 3 Zrotation Yrotation Xrotation
								End Site
								{
									OFFSET 0.000000 0.000000 0.000000
								}
							}
						}
					}
				}
				JOINT joint_10
				{
					OFFSET -2.846924 31.052063 76.130981
					CHANNELS 3 Zrotation Yrotation Xrotation
					JOINT joint_11
					{
						OFFSET 9.073730 131.055603 -18.752930
						CHANNELS 3 Zrotation Yrotation Xrotation
						JOINT joint_12
						{
							OFFSET 52.981201 29.883301 -260.613037
							CHANNELS 3 Zrotation Yrotation Xrotation
							JOINT joint_13
							{
								OFFSET 62.237793 15.935547 -236.423035
								CHANNELS 3 Zrotation Yrotation Xrotation
								End Site
								{
									OFFSET 0.000000 0.000000 0.000000
								}
							}
						}
					}
				}
			}
		}
	}
	JOINT joint_14
	{
		OFFSET 22.046143 -72.816772 -98.122925
		CHANNELS 3 Zrotation Yrotation Xrotation
		JOINT joint_15
		{
			OFFSET -23.673828 -54.692932 -469.927032
			CHANNELS 3 Zrotation Yrotation Xrotation
			JOINT joint_16
			{
				OFFSET -34.875244 -46.505249 -395.890999
				CHANNELS 3 Zrotation Yrotation Xrotation
				JOINT joint_17
				{
					OFFSET 168.486328 14.224182 -74.182999
					CHANNELS 3 Zrotation Yrotation Xrotation
					End Site
					{
						OFFSET 0.000000 0.000000 0.000000
					}
				}
			}
		}
	}
	JOINT joint_18
	{
		OFFSET -1.731934 82.408569 -92.846924
		CHANNELS 3 Zrotation Yrotation Xrotation
		JOINT joint_19
		{
			OFFSET -6.908936 32.203369 -472.535034
			CHANNELS 3 Zrotation Yrotation Xrotation
			JOINT joint_20
			{
				OFFSET -13.963135 23.196533 -399.207993
				CHANNELS 3 Zrotation Yrotation Xrotation
				JOINT joint_21
				{
					OFFSET 168.417725 19.834229 -73.041004
					CHANNELS 3 Zrotation Yrotation Xrotation
					End Site
					{
						OFFSET 0.000000 0.000000 0.000000
					}
				}
			}
		}
	}
}
MOTION
Frames: 15
Frame Time: 0.016667
-2584.213379 897.345032 1060.008057 3.628053 0.591836 -1.366741 0.706341 0.558804 1.810665 0.466921 -0.151097 -0.401052 0.539912 0.166506 0.229420 0.014624 0.846870 -0.182210 0.000000 0.000000 0.000000 -0.293290 1.457893 -1.727635 0.111924 1.576913 1.569134 0.653777 -2.192886 2.038076 0.000000 0.000000 0.000000 4.191757 0.624785 -1.610513 -0.246185 -0.074689 -0.693783 -0.209570 0.796511 -1.005297 0.000000 0.000000 0.000000 0.086674 -1.408414 6.287005 0.344024 -0.133284 -0.151599 0.176987 1.195043 -0.024084 0.000000 0.000000 0.000000 -2.070430 -0.536704 0.157018 -1.937641 1.190307 -0.697254 -2.099942 -1.604291 -0.719565 0.000000 0.000000 0.000000 
-2584.259277 897.266968 1059.956055 3.623387 0.562629 -1.353499 0.703799 0.572632 1.798734 0.465607 -0.145576 -0.399366 0.538249 0.166303 0.227956 0.015333 0.841548 -0.184924 0.000000 0.000000 0.000000 -0.283949 1.462524 -1.725553 0.108813 1.583226 1.560818 0.656618 -2.199710 2.048340 0.000000 0.000000 0.000000 4.192391 0.637955 -1.614362 -0.241285 -0.062405 -0.676156 -0.207790 0.802797 -1.000300 0.000000 0.000000 0.000000 0.086066 -1.378809 6.276910 0.346457 -0.138177 -0.149688 0.177671 1.207031 -0.024804 0.000000 0.000000 0.000000 -2.067635 -0.505502 0.148153 -1.937569 1.184597 -0.701806 -2.099440 -1.600119 -0.719845 0.000000 0.000000 0.000000 
-2584.302979 897.192383 1059.890015 3.620920 0.530238 -1.337385 0.700235 0.589660 1.784325 0.463303 -0.142017 -0.398996 0.535838 0.168221 0.227360 0.015739 0.840296 -0.186718 0.000000 0.000000 0.000000 -0.274785 1.466271 -1.720872 0.104883 1.588406 1.549000 0.660296 -2.208021 2.061823 0.000000 0.000000 0.000000 4.197164 0.651562 -1.619643 -0.235953 -0.050507 -0.655863 -0.206985 0.806420 -0.998248 0.000000 0.000000 0.000000 0.084706 -1.344414 6.263010 0.348564 -0.144920 -0.146764 0.177972 1.218498 -0.025646 0.000000 0.000000 0.000000 -2.065418 -0.469632 0.135397 -1.938690 1.176111 -0.705231 -2.099867 -1.595147 -0.720622 0.000000 0.000000 0.000000 
-2584.280029 897.126709 1059.796021 3.617319 0.500864 -1.321123 0.697761 0.617440 1.768314 0.462321 -0.183301 -0.392755 0.533177 0.207995 0.222072 0.015464 0.896998 -0.193395 0.000000 0.000000 0.000000 -0.299656 1.467629 -1.710395 0.102276 1.584306 1.537584 0.663904 -2.213910 2.075645 0.000000 0.000000 0.000000 4.236961 0.662387 -1.630465 -0.231986 -0.046906 -0.637087 -0.206030 0.814503 -0.996881 0.000000 0.000000 0.000000 0.083397 -1.308702 6.248911 0.350937 -0.152528 -0.144214 0.178758 1.226572 -0.025989 0.000000 0.000000 0.000000 -2.062358 -0.431974 0.122368 -1.939197 1.166148 -0.709255 -2.099872 -1.594174 -0.720746 0.000000 0.000000 0.000000 
-2584.114990 897.084717 1059.718994 3.599095 0.768798 -1.331233 0.697658 0.342981 1.776652 0.465822 -0.299243 -0.379549 0.533441 0.277981 0.213574 0.012980 1.129842 -0.214949 0.000000 0.000000 0.000000 -0.438826 1.504348 -1.695426 0.100946 1.594414 1.536285 0.667899 -2.217501 2.091049 0.000000 0.000000 0.000000 4.389569 0.708138 -1.652152 -0.229406 -0.024649 -0.632951 -0.204679 0.828717 -0.995854 0.000000 0.000000 0.000000 0.105357 -1.589152 6.263454 0.345776 -0.174928 -0.141247 0.165752 1.280570 -0.036238 0.000000 0.000000 0.000000 -2.072814 -0.703001 0.148016 -1.931463 1.138312 -0.711906 -2.088092 -1.550167 -0.720784 0.000000 0.000000 0.000000 
-2583.883057 897.050598 1059.614990 3.579490 1.039085 -1.341246 0.698273 0.080256 1.783888 0.470032 -0.459695 -0.362305 0.533378 0.385126 0.201915 0.009246 1.418421 -0.240371 0.000000 0.000000 0.000000 -0.610461 1.538746 -1.675805 0.100914 1.595702 1.535656 0.671992 -2.219037 2.107351 0.000000 0.000000 0.000000 4.578360 0.751449 -1.678472 -0.228252 -0.010463 -0.630868 -0.203226 0.846756 -0.995546 0.000000 0.000000 0.000000 0.127370 -1.867484 6.277594 0.340977 -0.198638 -0.138466 0.153151 1.332506 -0.046136 0.000000 0.000000 0.000000 -2.082471 -0.971118 0.173368 -1.923290 1.108281 -0.714685 -2.075948 -1.509202 -0.720301 0.000000 0.000000 0.000000 
-2583.747314 896.984009 1059.333984 3.598977 0.436569 -1.273659 0.698068 0.778333 1.716450 0.465945 -0.628035 -0.350468 0.525314 0.594820 0.191637 0.010511 1.462112 -0.253761 0.000000 0.000000 0.000000 -0.606891 1.456111 -1.645856 0.103700 1.509756 1.507283 0.673725 -2.213987 2.117296 0.000000 0.000000 0.000000 4.597134 0.675647 -1.706490 -0.229950 -0.093434 -0.595654 -0.200407 0.869656 -0.991164 0.000000 0.000000 0.000000 0.079855 -1.196603 6.208816 0.359656 -0.180307 -0.141090 0.184125 1.227963 -0.023765 0.000000 0.000000 0.000000 -2.048961 -0.309163 0.084887 -1.937833 1.126076 -0.725905 -2.098500 -1.621601 -0.716936 0.000000 0.000000 0.000000 
-2583.913818 896.841858 1058.718994 3.666922 -1.963065 -1.053368 0.702261 3.515775 1.485198 0.455299 -0.841654 -0.329497 0.507480 0.973602 0.180422 0.022030 0.975383 -0.237671 0.000000 0.000000 0.000000 -0.257227 1.137517 -1.648872 0.123118 1.251174 1.474610 0.669710 -2.198596 2.109548 0.000000 0.000000 0.000000 4.265351 0.360413 -1.687801 -0.247061 -0.365719 -0.543435 -0.193390 0.900226 -0.972271 0.000000 0.000000 0.000000 -0.104840 1.417356 5.963663 0.432562 -0.081588 -0.150519 0.303245 0.866817 0.058731 0.000000 0.000000 0.000000 -1.922007 2.267302 -0.227155 -1.994493 1.231589 -0.748878 -2.184011 -1.997774 -0.709788 0.000000 0.000000 0.000000 
-2584.175293 896.666382 1057.927002 3.761777 -5.289254 -0.749170 0.689292 7.318090 1.129376 0.438519 -1.036994 -0.257878 0.475089 1.324230 0.160148 0.037399 0.232125 -0.212097 0.000000 0.000000 0.000000 0.222690 0.724536 -1.812016 0.180206 0.934240 1.577681 0.660864 -2.176433 2.085841 0.000000 0.000000 0.000000 3.797903 -0.051512 -1.508971 -0.299602 -0.702224 -0.618965 -0.182906 0.935718 -0.940613 0.000000 0.000000 0.000000 -0.376866 5.035736 5.592307 0.526238 0.041899 -0.162190 0.448655 0.473242 0.155203 0.000000 0.000000 0.000000 -1.760967 5.835839 -0.648375 -2.085534 1.366230 -0.770543 -2.307089 -2.407481 -0.714197 0.000000 0.000000 0.000000 
-2584.078125 896.539612 1057.276978 3.884009 -7.656177 -0.513275 0.643404 9.928088 0.831853 0.407241 -1.078592 -0.177594 0.429396 1.498087 0.140025 0.046659 -0.209857 -0.204072 0.000000 0.000000 0.000000 0.514133 0.465502 -2.032596 0.242080 0.743392 1.752954 0.655423 -2.158957 2.074329 0.000000 0.000000 0.000000 3.520646 -0.312676 -1.272710 -0.358889 -0.907029 -0.777532 -0.175993 0.964484 -0.920555 0.000000 0.000000 0.000000 -0.605935 7.634781 5.284214 0.573700 0.113838 -0.174623 0.527794 0.228984 0.210044 0.000000 0.000000 0.000000 -1.676057 8.384076 -0.957628 -2.176722 1.456783 -0.787448 -2.416771 -2.640730 -0.733172 0.000000 0.000000 0.000000 
-2583.325195 896.524902 1056.915039 4.077430 -8.223357 -0.405269 0.569119 10.482492 0.682290 0.347827 -1.183066 -0.129740 0.360883 1.617410 0.126081 0.046180 -0.077413 -0.217423 0.000000 0.000000 0.000000 0.487112 0.462453 -2.091712 0.254506 0.740466 1.811805 0.665003 -2.184623 2.109038 0.000000 0.000000 0.000000 3.568228 -0.327113 -1.203214 -0.373396 -0.922901 -0.825320 -0.179981 0.976496 -0.938327 0.000000 0.000000 0.000000 -0.723571 8.364521 5.143372 0.546086 0.038813 -0.182046 0.503202 0.122465 0.208305 0.000000 0.000000 0.000000 -1.711187 9.045383 -1.086469 -2.259766 1.426012 -0.797527 -2.500447 -2.694634 -0.762673 0.000000 0.000000 0.000000 
-2582.213379 896.558777 1056.694946 4.311819 -7.919770 -0.352221 0.482534 10.062174 0.598866 0.273377 -1.361200 -0.100610 0.279854 1.729369 0.114237 0.040456 0.330407 -0.239377 0.000000 0.000000 0.000000 0.318627 0.581910 -2.042901 0.236290 0.826952 1.785083 0.680285 -2.215390 2.164774 0.000000 0.000000 0.000000 3.776585 -0.221875 -1.227634 -0.361955 -0.848848 -0.801958 -0.189685 0.983385 -0.976964 0.000000 0.000000 0.000000 -0.783883 8.193343 5.084979 0.480897 -0.104028 -0.189973 0.429231 0.064475 0.181116 0.000000 0.000000 0.000000 -1.802520 8.795262 -1.135936 -2.338757 1.338273 -0.806091 -2.572397 -2.673840 -0.796365 0.000000 0.000000 0.000000 
-2581.169922 896.537537 1056.489990 4.485785 -7.637671 -0.295035 0.416639 9.634681 0.513912 0.219390 -1.495073 -0.080640 0.221305 1.808627 0.104460 0.035912 0.673301 -0.261907 0.000000 0.000000 0.000000 0.198729 0.676842 -1.980855 0.219605 0.895836 1.741518 0.680694 -2.149434 2.190837 0.000000 0.000000 0.000000 3.973686 -0.125648 -1.198896 -0.359394 -0.776788 -0.818665 -0.195798 1.005938 -1.006176 0.000000 0.000000 0.000000 -0.823137 7.988296 5.034394 0.421942 -0.150077 -0.209295 0.372753 -0.005852 0.162559 0.000000 0.000000 0.000000 -1.871849 8.539692 -1.182567 -2.391577 1.311053 -0.821801 -2.622548 -2.658539 -0.819963 0.000000 0.000000 0.000000 
-2580.379883 896.420166 1056.250977 4.521258 -7.668614 -0.204167 0.387431 9.486904 0.395063 0.202738 -1.539077 -0.068425 0.202086 1.839702 0.098739 0.036064 0.853698 -0.286783 0.000000 0.000000 0.000000 0.158672 0.708378 -1.893865 0.183236 0.912233 1.588028 0.689352 -1.953419 2.308836 0.000000 0.000000 0.000000 4.016904 -0.074378 -1.090319 -0.364920 -0.721943 -0.856414 -0.195779 1.064244 -1.021006 0.000000 0.000000 0.000000 -0.837507 8.024180 4.955755 0.396836 -0.044306 -0.243233 0.366831 -0.091642 0.167255 0.000000 0.000000 0.000000 -1.878775 8.581854 -1.260779 -2.397729 1.368691 -0.852047 -2.633194 -2.663118 -0.823959 0.000000 0.000000 0.000000 
-2579.659180 896.247437 1056.027954 4.494005 -7.721702 -0.109819 0.379193 9.334064 0.273614 0.207037 -1.539325 -0.062238 0.205047 1.837160 0.093499 0.037773 0.970702 -0.310796 0.000000 0.000000 0.000000 0.169903 0.715369 -1.789428 0.147362 0.911340 1.415853 0.682480 -1.660974 2.395706 0.000000 0.000000 0.000000 4.049871 -0.032031 -0.930976 -0.378852 -0.669351 -0.932695 -0.192233 1.138700 -1.026682 0.000000 0.000000 0.000000 -0.830186 8.027017 4.884317 0.378548 0.157976 -0.288436 0.378935 -0.189050 0.180773 0.000000 0.000000 0.000000 -1.863100 8.620005 -1.337028 -2.377299 1.486297 -0.888559 -2.621610 -2.673967 -0.817584 0.000000 0.000000 0.000000 
